<svg id="Layer_1" data-name="Layer 1" xmlns="http://www.w3.org/2000/svg" viewBox="0 0 521.43 453.83"><defs><style>path{fill:#5baed8;}.cls-1{fill:none;}</style></defs><path class="cls-1" d="M268.3,645H40.64V191.15H562.07V365.88a1.55,1.55,0,0,0-2.44-.15,19.27,19.27,0,0,1-3.34,2.2c-3.82,1.92-7,.77-8.69-3.1a6.8,6.8,0,0,1-.6-1.78,65.94,65.94,0,0,1,0-17.86c.14-1.24,1-1.44,2-1.51,2.19-.14,4.39-.3,6.58-.53a24,24,0,0,0,4-.66c1.75-.49,2.47-2.08,2-4-.32-1.23-1.09-1.56-3.08-1.31s-3.9.58-5.85.72c-1.61.12-3.24,0-4.92,0a16.89,16.89,0,0,1,0-1.76c.36-3,.76-6.08,1.11-9.12s-1.1-4.46-4.1-4.09a2.29,2.29,0,0,0-2.38,2.39c-.2,1.64-.36,3.28-.54,4.92-.23,2.11-.39,4.23-.72,6.32s-.41,2.12-2.49,2.4a10.41,10.41,0,0,0-2.29.51,2.26,2.26,0,0,0-1.47,2.65,2.06,2.06,0,0,0,2,1.94c.55.06,1.1.08,1.64.19,1.58.34,1.88.86,1.82,2.48-.16,4.31-.31,8.63-.37,12.95a19.88,19.88,0,0,0,2.08,8.89,10.8,10.8,0,0,0,11.7,6,17.32,17.32,0,0,0,8.4-4V645H295.69c2.8-.29,5.59-.79,8.39-.82,4.56,0,9.12.22,13.67.35a102,102,0,0,0,22.74-2.19,136.43,136.43,0,0,0,55.93-24.6A244.23,244.23,0,0,0,421,596.4c1.92-1.86,3.74-3.83,5.73-5.62,5.25-4.74,10.66-9.31,15.84-14.12A133.27,133.27,0,0,0,457,560.75a178.54,178.54,0,0,0,27.57-51.35,249.56,249.56,0,0,0,12.73-62c.47-6.19.41-12.41.53-18.62a27.93,27.93,0,0,0-.33-3.52,4.3,4.3,0,0,0-3.28-3.9,5,5,0,0,0-5.37,1.49,7.18,7.18,0,0,0-1.78,4.28c-.23,2.51-.34,5-.59,7.52q-1.06,10.56-2.23,21.1a241.41,241.41,0,0,1-5.33,29.95,223.34,223.34,0,0,1-20.31,54.22,202.52,202.52,0,0,1-17.29,26.72,70.2,70.2,0,0,1-19.14,17.66,147.94,147.94,0,0,1-39.37,16.84,178.9,178.9,0,0,1-29.71,5.22,261.55,261.55,0,0,1-26.84,1.3c-2,0-3.91-.29-5.87-.42-6.82-.46-13.64-.82-20.45-1.39a284.81,284.81,0,0,1-29.64-4.32,319.21,319.21,0,0,1-43.38-11.28c-10.13-3.44-20.14-7.26-30-11.31-7.49-3.07-14.73-6.77-22.06-10.22a9.82,9.82,0,0,1-2.4-1.48c-3.91-3.52-7.86-7-11.63-10.69-7.26-7.09-14.3-14.4-20.82-22.18-6.31-7.54-12.61-15.09-18.67-22.82a279.11,279.11,0,0,1-18-26.24,282,282,0,0,1-19.39-37A223.28,223.28,0,0,1,71.3,409.78a7.38,7.38,0,0,1,.23-4.6c2.54-6.36,5-12.76,7.6-19.07a209.19,209.19,0,0,1,12.7-25,244,244,0,0,1,19.79-29c5.51-6.87,11-13.78,17-20.2A345.63,345.63,0,0,1,154,287.15c8.37-7.29,16.93-14.32,26-20.78a311.86,311.86,0,0,1,50.18-29.52A264.28,264.28,0,0,1,265,223.64a193.32,193.32,0,0,1,45.69-7.89,21.44,21.44,0,0,1,4.24.11q4.68.64,9.32,1.55a247.33,247.33,0,0,1,40.35,11.53,219.57,219.57,0,0,1,43,22,194.37,194.37,0,0,1,27.66,22.38,4.73,4.73,0,0,0,3.59,1.42c4.09-.05,8.19,0,12.28,0a17.23,17.23,0,0,0,2-.25,8.27,8.27,0,0,0-.51-1.24c-1.21-1.75-2.44-3.48-3.67-5.21a165.51,165.51,0,0,0-22.29-25.58c-4.09-3.8-8.22-7.57-12.57-11.05a185.55,185.55,0,0,0-42.83-25.6,179.87,179.87,0,0,0-36.71-11.31,135.87,135.87,0,0,0-29.76-2.89c-6.06.16-12.13,0-18.19,0a77.89,77.89,0,0,0-9.17.45c-6.94.9-13.9,1.75-20.75,3.12a225.84,225.84,0,0,0-39.46,12.06c-3.44,1.37-6.79,3.05-10.33,4-10.48,2.87-20.89,5.92-31.05,9.82A233.35,233.35,0,0,0,140.44,238a183.16,183.16,0,0,0-27,19.34,144.89,144.89,0,0,0-17.67,18,152.09,152.09,0,0,0-20.1,31.85,168.58,168.58,0,0,0-8.07,20.4,42.08,42.08,0,0,1-3.11,7.36,199.24,199.24,0,0,0-19.23,50.84A131.54,131.54,0,0,0,42.15,431a140.48,140.48,0,0,0,8,32.23c1.24,3.38,2.93,6.63,3.16,10.33.16,2.67.29,5.34.61,8,.65,5.38,1.17,10.8,2.19,16.11a128.86,128.86,0,0,0,15,40.06,168.32,168.32,0,0,0,24.51,32.52A208.89,208.89,0,0,0,123,594c14.84,10.94,30.92,19.67,47.72,27.14A261.77,261.77,0,0,0,203,633.06a299.67,299.67,0,0,0,34.44,8.17,232.12,232.12,0,0,0,29,3.31A10.14,10.14,0,0,1,268.3,645Zm93.12-198.32-.58-.32c0-1.32.06-2.65,0-4s-.49-1.8-1.89-1.79a5.08,5.08,0,0,0-1.4.19c-3.54,1.05-7.08,2.13-10.61,3.21-.37.12-.88.27-1,.55a3.31,3.31,0,0,0-.44,1.92c.09.44.79.91,1.3,1.05a8.67,8.67,0,0,0,2.11.1c2.85.07,3.59.95,3.35,3.8-.15,1.72-.27,3.44-.28,5.17,0,9.28,0,18.57,0,27.85,0,3.75-.6,4.41-4.23,4.74l-.47,0c-1.63.19-2,.63-1.92,2.3.07,1.48.4,1.86,2.08,1.88q9.21,0,18.41,0c1.7,0,2.06-.41,2.1-1.85s-.41-2.12-2-2.31c-.39,0-.79,0-1.18-.06-2.67-.27-3.81-1.46-3.84-4.1s0-5.5,0-8.26c0-7.79,0-15.58,0-23.36,0-1.34.15-2.48,1.58-3.11,3.1-1.37,6.21-2.78,9.62-3.07,3.23-.28,6.28.39,8.62,2.91,1.89,2,2.39,4.56,2.4,7.21,0,8.89,0,17.78,0,26.67,0,.63,0,1.26,0,1.89-.11,1.84-.62,2.52-2.43,3-.83.21-1.71.2-2.56.35-1.27.23-1.67.92-1.6,2.43a1.57,1.57,0,0,0,1.8,1.69c6.29,0,12.59,0,18.88,0,1.55,0,1.93-.53,1.9-2s-.47-1.94-2.2-2.11c-4.18-.43-4.84-1.14-4.84-5.29q0-13.33,0-26.67a39,39,0,0,0-.2-4.71,1.85,1.85,0,0,1,1.32-2.17c3.16-1.44,6.37-2.86,9.87-3.07,6.16-.38,10.39,2.05,11.17,8.45a67.5,67.5,0,0,1,.51,7.51c.07,6.77,0,13.53,0,20.3,0,4.48-.57,5.11-5,5.65l-.47.05a1.6,1.6,0,0,0-1.51,1.53c-.29,1.85.29,2.59,2.27,2.6,4.88,0,9.76,0,14.64,0,1.34,0,2.67,0,4,0a1.53,1.53,0,0,0,1.66-1.59c.17-1.81-.28-2.39-2.13-2.57-.47-.05-.95-.05-1.41-.13-2.45-.43-3.39-1.48-3.52-4,0-.71,0-1.42,0-2.13,0-9,0-17.93,0-26.9a20.51,20.51,0,0,0-1.41-7.61c-1.87-4.8-5.55-7.33-10.56-7.89A21.18,21.18,0,0,0,398.92,443q-3.24,1.69-6.47,3.4c-1.51.8-1.6.74-2.83-.41A26.86,26.86,0,0,0,385,442c-3.94-2.21-8.24-2.06-12.37-.71a77.53,77.53,0,0,0-8.58,3.88C363.14,445.61,362.29,446.16,361.42,446.66Zm-148.69-.12c-.07-1.33-.15-2.17-.16-3,0-3.7,0-7.39,0-11.09,0-5.43,0-10.86,0-16.29,0-2.19-.38-2.42-2.53-2.19-4.29.47-8.09,2.52-12.16,3.71a2,2,0,0,0-.42.2,1.76,1.76,0,0,0-.82,2c.1.86.69,1.18,1.48,1.22.47,0,.94,0,1.41,0,4.48.06,4.56.14,4.57,4.72q0,28.8,0,57.59a18.7,18.7,0,0,1-.05,2.12,3.26,3.26,0,0,1-2.82,3.31c-.83.21-1.7.24-2.56.39A1.78,1.78,0,0,0,197,491c-.18,1.72.34,2.34,2.31,2.35,6,0,12,0,17.94,0l.7,0c1.2,0,1.65-.71,1.65-1.83,0-1.43-.42-2-1.83-2.28-.7-.14-1.42-.14-2.1-.3a3.44,3.44,0,0,1-3.09-3.6c0-.62,0-1.26,0-1.89V454.2c0-.55,0-1.1,0-1.66a2.42,2.42,0,0,1,1.77-2.49c1.54-.58,3-1.27,4.62-1.79a19.64,19.64,0,0,1,7.65-1.14c4.71.35,8,3,8.89,7.4a26.16,26.16,0,0,1,.62,5.14c.07,8.34.06,16.68,0,25,0,3-1.07,4.07-4,4.45-.32,0-.63,0-1,.06-1.62.21-2,.7-2,2.28s.4,1.87,2.07,1.88q9.21.06,18.41,0c1.61,0,2-.38,2.08-1.64a2,2,0,0,0-1.87-2.47c-.62-.11-1.26-.1-1.88-.23-2.2-.47-3.08-1.47-3.25-3.71-.05-.71,0-1.42,0-2.12,0-9.05,0-18.1,0-27.15a21,21,0,0,0-1.33-7.38,12.55,12.55,0,0,0-11.14-8.16,23.28,23.28,0,0,0-12.12,2.38Zm-21.45,35.69h0c0-2.12.06-4.25,0-6.37,0-.64-.34-1.73-.71-1.82a12,12,0,0,0-3.92-.28c-1.14.12-1.22,1.31-1.44,2.21-.64,2.68-1.33,5.35-1.83,8a3.88,3.88,0,0,1-2.89,3.33c-5.35,1.67-10.76,2.39-16.26,1-8.37-2.08-14.17-7.31-17.59-15.11a40.67,40.67,0,0,1-3.12-21.67,35.94,35.94,0,0,1,6.26-17.07,20.72,20.72,0,0,1,6.36-5.88c7.85-4.62,16.08-4.89,24.54-1.79a3.78,3.78,0,0,1,2.7,3.2c.41,2.4,1,4.77,1.59,7.14s.62,2.34,3,2.37c.47,0,.94,0,1.41,0,1.47-.13,1.85-.41,1.87-1.86.06-4.17,0-8.34,0-12.51a2.32,2.32,0,0,0-1.77-2.47c-1.35-.42-2.71-.84-4.07-1.22-9.27-2.55-18.58-3.3-27.91-.37-11,3.44-18.34,10.7-22.33,21.38-2.47,6.6-2.79,13.44-2,20.45,1.69,15.63,12.72,27.9,27.86,30.87,4.14.81,8.3.52,12.47.54,5.61,0,10.85-1.62,16-3.48a2.38,2.38,0,0,0,1.74-2.5C191.26,486.33,191.28,484.28,191.28,482.23Zm-56.65-142.1a11.11,11.11,0,0,0,1.26.23c.71,0,1.42.05,2.12,0,1.85-.07,2.13-.27,2.55-2.1.56-2.46,1.06-4.93,1.56-7.39.42-2.1.6-2.31,2.79-2.33,4.09,0,8.18,0,12.28,0h.47c1.59.13,1.86.39,2,2,0,.55,0,1.1,0,1.65v21q0,16.41,0,32.82c0,4.06-.88,5-4.85,5.36a16.86,16.86,0,0,0-2.56.41c-1.34.34-1.64.88-1.53,2.45.1,1.4.4,1.69,1.92,1.81.55,0,1.11,0,1.66,0h19.59c.63,0,1.27,0,1.89,0,1.44-.13,1.76-.49,1.82-1.92.07-1.62-.27-2.13-1.84-2.5a13.24,13.24,0,0,0-2.1-.25c-4-.27-4.57-.9-4.57-4.88q0-27.15,0-54.3c0-.47,0-.94,0-1.42.09-1.9.35-2.23,2.22-2.25q6.25-.07,12.51,0c1.87,0,2,.18,2.45,2.15.5,2.31.92,4.63,1.41,6.94.56,2.67.74,2.8,3.42,2.74,2.2-.05,2.52-.31,2.53-2.42q.06-6,0-12c0-2.29-.26-2.49-2.64-2.53H138.82c-.55,0-1.1,0-1.65,0-2.2.06-2.46.27-2.49,2.45-.05,4,0,8-.05,12ZM286.45,487.55c.31,1.51.52,2.66.79,3.8.39,1.68.68,2,2.38,2q5.31.08,10.62,0c1.64,0,2-.43,2-1.93s-.31-2.07-2-2.25c-.47-.05-.95,0-1.41-.11-2.56-.4-3.56-1.51-3.7-4.07,0-.71,0-1.41,0-2.12,0-8.58.05-17.15,0-25.73a29.39,29.39,0,0,0-.61-5.84c-1.22-5.75-4.76-9.39-10.59-10.28a46.75,46.75,0,0,0-10.1-.41,25.1,25.1,0,0,0-13.08,4.95c-2.37,1.7-3.22,4.22-3.24,7,0,2,.87,2.88,2.86,3,1.72.08,3.46,0,5.19,0a1.56,1.56,0,0,0,1.74-1.75c0-1.42,0-2.83,0-4.25,0-2.44.57-3.29,3-3.75a59.27,59.27,0,0,1,6.55-.62,8.66,8.66,0,0,1,9,7.33,42.2,42.2,0,0,1,.33,5.4c0,2-.14,2-2,2.57-4.54,1.28-9.1,2.51-13.6,3.92a52.22,52.22,0,0,0-7.22,2.88c-6.21,3.07-10,8.94-8.21,17a13,13,0,0,0,11.28,10,21.4,21.4,0,0,0,14.2-3.27C282.47,489.87,284.31,488.83,286.45,487.55Zm20.38-97c.38,1.54.69,2.65.94,3.78a1.94,1.94,0,0,0,2.1,1.79c3.62,0,7.23,0,10.85,0,1.09,0,1.8-.43,1.87-1.64s-.25-1.79-1.6-2.16c-.61-.17-1.23-.26-1.85-.4-2.63-.59-3.53-1.68-3.63-4.42,0-.78,0-1.57,0-2.36,0-8.65.1-17.3-.06-25.95a25.79,25.79,0,0,0-1.31-7.37,10.9,10.9,0,0,0-8.13-7.5,30.77,30.77,0,0,0-19,1c-2.56,1-5.12,2.1-6.94,4.32a7.62,7.62,0,0,0-1.9,7c.21.82.59,1.52,1.5,1.62,2,.21,4.06.44,6.1.49,1.46,0,1.79-.37,1.86-1.83s0-3,.05-4.48c.05-2.14.48-2.87,2.48-3.47,3.44-1,6.92-1.45,10.44-.25a7.56,7.56,0,0,1,5.43,6,55,55,0,0,1,.6,6.55c.11,1.68,0,1.83-1.68,2.24-2.07.5-4.17.87-6.19,1.48-5.34,1.62-10.8,3-15.73,5.67a13.68,13.68,0,0,0-7,8,22.84,22.84,0,0,0-.64,6.51,12.46,12.46,0,0,0,8.37,11.43c5.9,2.09,11.31.58,16.56-2.13C302.42,393.29,304.39,392,306.83,390.54ZM239,370.13a27.26,27.26,0,0,0-1.85-11.4c-2.17-5.83-5.82-10.37-11.58-13a26.08,26.08,0,0,0-14.7-2.1,21.76,21.76,0,0,0-18,13.16,31.75,31.75,0,0,0-1.12,24.8c2.14,6,5.87,10.75,11.74,13.53a24.77,24.77,0,0,0,19.05,1.12,22.48,22.48,0,0,0,12.82-10.53A28,28,0,0,0,239,370.13Zm168.06-7.82h.17a30.23,30.23,0,0,0,0,3.3c.73,6.76,5.23,9.63,11.16,9.05A25.81,25.81,0,0,0,428.79,371a36.52,36.52,0,0,0,8.12-6.78c7.16-7.6,10.39-16.59,8.86-27a16.1,16.1,0,0,0-9.72-13A25.87,25.87,0,0,0,425.51,322a61.88,61.88,0,0,0-18.06,3,7.14,7.14,0,0,0-1.71.78,2.49,2.49,0,0,0-1,3.45,2.86,2.86,0,0,0,2.6,1.71c2.07.22,2.22.38,2.17,2.49-.05,1.64-.28,3.28-.42,4.93l-1.29,15.24C407.53,356.52,407.29,359.41,407.05,362.31ZM342,353h0q0-16.75,0-33.51c0-2.43-.61-2.92-3-2.56a7,7,0,0,0-1.37.34c-2.62.87-5.22,1.75-7.83,2.63-.82.28-1.63.58-2.45.85A1.86,1.86,0,0,0,326,322.9c.09,1.14.85,1.4,1.8,1.43.63,0,1.26,0,1.89.09,3.59.35,3.8.58,3.8,4.17q0,28.92,0,57.82a22.24,22.24,0,0,1-.14,2.59,2.87,2.87,0,0,1-2.53,2.71c-1,.18-2,.36-3,.57-1.57.33-1.93.77-1.82,2.17s.47,1.6,2.08,1.64c2,.06,4.09,0,6.14,0,4.4,0,8.81,0,13.21,0,1.62,0,2-.39,2.1-1.63s-.27-2-1.74-2.31a22.65,22.65,0,0,0-2.33-.39c-1.84-.29-3-1.23-3.21-3.19-.09-1.09-.22-2.19-.22-3.29Q342,369.12,342,353Zm-21,98.57a14.61,14.61,0,0,1-.28-1.68c0-2.36,0-4.72-.05-7.07-.06-1.86-.76-2.57-2.53-2.11-3.95,1-7.84,2.3-11.75,3.48a2,2,0,0,0-.22.09,1.78,1.78,0,0,0-.89,2.2c.15.87.8,1.1,1.57,1.12s1.57,0,2.35,0c2.69.05,3,.35,3.06,3,0,.39,0,.79,0,1.18v26.89c0,2.36,0,4.72,0,7.08,0,2.1-.63,2.8-2.67,3.26-.84.18-1.72.17-2.55.38-1.09.29-1.46,1.07-1.38,2.41a1.5,1.5,0,0,0,1.65,1.59l1.65,0h17.93a12.94,12.94,0,0,0,1.65,0c1.3-.16,1.63-.6,1.62-2.09s-.33-1.91-1.67-2c-1.1-.11-2.21,0-3.3-.18-3.07-.44-3.94-1.4-4-4.49q0-12.37,0-24.77a5.82,5.82,0,0,1,.52-2.73,18.42,18.42,0,0,1,8.41-8.3,6.06,6.06,0,0,1,6.08.26c.87.52,1.67,1.17,2.54,1.71,1.5.93,2.44.53,2.65-1.15s.33-3.59.5-5.39a2.35,2.35,0,0,0-1.61-2.79c-3.4-1.16-6.83-1.6-10,.54a32.61,32.61,0,0,0-4.91,4.35C323.93,447.82,322.64,449.57,321,451.53ZM247.52,370.8h0c0,2.44,0,4.87,0,7.31,0,3-.15,6,.06,9,.45,6.29,2.45,8.35,7.85,9.58,5.21,1.18,10.15-.2,15.05-1.68,1-.31,1.49-2.2,1-3.52s-1.33-.76-2.18-.66a61,61,0,0,1-6.32.57,5.51,5.51,0,0,1-5.49-3.72,14.37,14.37,0,0,1-1-4.79c-.1-8.1-.05-16.2-.06-24.29a26.58,26.58,0,0,0-.1-2.83c-.37-3.54-.36-3.57,3.19-3.57h2.6c2.44,0,4.87,0,7.31-.05.64,0,1.74-.34,1.8-.69a8.33,8.33,0,0,0,0-3.65c-.12-.42-1.45-.73-2.23-.74-3.46-.08-6.92,0-10.38-.05-2.44,0-2.63-.37-2.43-2.8a65.92,65.92,0,0,0,.18-6.59c0-1.4-.38-1.55-1.73-1.61a3.2,3.2,0,0,0-3.61,2.6,13,13,0,0,1-4.68,6.92,38.12,38.12,0,0,1-4.26,2.47,2.4,2.4,0,0,0-1.17,2.8c.19,1.28,1.11,1.36,2.09,1.38.55,0,1.1,0,1.65,0,2.63,0,2.83.22,2.84,2.83C247.54,360.26,247.52,365.53,247.52,370.8Zm255.1-15.61-.44-.07c0-.74-.1-1.48-.1-2.23,0-2.51.12-5,0-7.54a27.48,27.48,0,0,0-.92-5.56c-.57-2.05-2.18-2.67-4.54-2-1.88.51-2.12,1.22-1.81,3.62.48,3.73,1,7.48,1.15,11.23a112,112,0,0,1-.83,17.17,20.29,20.29,0,0,0-.05,2.59,1.84,1.84,0,0,0,1.73,1.89c3.1.62,4.31,0,5.33-3,.2-.59.38-1.2.6-1.79,1.88-5,3.63-10.05,5.69-15a28.34,28.34,0,0,1,5.61-9.21c1.23-1.25,2.67-2.35,4.59-1.73s2.48,2.45,2.77,4.3a.85.85,0,0,1,0,.23c0,2.51,0,5,0,7.54-.08,3.3-.3,6.59-.34,9.89a11.21,11.21,0,0,0,1.87,6,5.89,5.89,0,0,0,4.88,2.87c1.7.11,2.81-.48,3.34-1.67A3,3,0,0,0,530,369a5.21,5.21,0,0,1-2.13-3.8c-.14-3-.21-6.11-.06-9.15.2-4.17.57-8.33-.44-12.43a8.28,8.28,0,0,0-9.17-6.41,11.83,11.83,0,0,0-6.94,3.19c-3.76,3.57-5.85,8.13-7.84,12.76C503.16,353.81,502.9,354.5,502.62,355.19Zm-43.48,4.07c2.92,0,5.68.12,8.42,0a23.32,23.32,0,0,0,12.61-4.09,9.59,9.59,0,0,0-.68-16.07c-4.87-2.81-10-2.6-15-.4-9.29,4.08-14.14,15.25-11.73,25.05a13.25,13.25,0,0,0,8.9,9.87,22.8,22.8,0,0,0,14.82,0,18.32,18.32,0,0,0,8.88-6,2.54,2.54,0,0,0-.23-3.77c-1-1-1.88-.94-3.26.27-.3.26-.55.57-.86.82-4.47,3.67-9.51,5.09-15.2,3.62C461.44,367.46,458.94,364,459.14,359.26Z" transform="translate(-40.64 -191.15)"/><path d="M268.3,645a10.14,10.14,0,0,0-1.81-.44,232.12,232.12,0,0,1-29-3.31A299.67,299.67,0,0,1,203,633.06a261.77,261.77,0,0,1-32.31-11.93c-16.8-7.47-32.88-16.2-47.72-27.14a208.89,208.89,0,0,1-27.42-23.77A168.32,168.32,0,0,1,71.05,537.7a128.86,128.86,0,0,1-15-40.06c-1-5.31-1.54-10.73-2.19-16.11-.32-2.65-.45-5.32-.61-8-.23-3.7-1.92-7-3.16-10.33a140.48,140.48,0,0,1-8-32.23,131.54,131.54,0,0,1,3.08-45.22,199.24,199.24,0,0,1,19.23-50.84,42.08,42.08,0,0,0,3.11-7.36,168.58,168.58,0,0,1,8.07-20.4,152.09,152.09,0,0,1,20.1-31.85,144.89,144.89,0,0,1,17.67-18,183.16,183.16,0,0,1,27-19.34,233.35,233.35,0,0,1,35.31-16.87c10.16-3.9,20.57-6.95,31.05-9.82,3.54-1,6.89-2.65,10.33-4a225.84,225.84,0,0,1,39.46-12.06c6.85-1.37,13.81-2.22,20.75-3.12a77.89,77.89,0,0,1,9.17-.45c6.06-.07,12.13.11,18.19,0a135.87,135.87,0,0,1,29.76,2.89,179.87,179.87,0,0,1,36.71,11.31A185.55,185.55,0,0,1,414,231.41c4.35,3.48,8.48,7.25,12.57,11.05A165.51,165.51,0,0,1,448.86,268c1.23,1.73,2.46,3.46,3.67,5.21a8.27,8.27,0,0,1,.51,1.24,17.23,17.23,0,0,1-2,.25c-4.09,0-8.19,0-12.28,0a4.73,4.73,0,0,1-3.59-1.42A194.37,194.37,0,0,0,407.55,251a219.57,219.57,0,0,0-43-22,247.33,247.33,0,0,0-40.35-11.53q-4.64-.9-9.32-1.55a21.44,21.44,0,0,0-4.24-.11A193.32,193.32,0,0,0,265,223.64a264.28,264.28,0,0,0-34.84,13.21A311.86,311.86,0,0,0,180,266.37c-9,6.46-17.59,13.49-26,20.78a345.63,345.63,0,0,0-25.36,24.69c-6,6.42-11.5,13.33-17,20.2a244,244,0,0,0-19.79,29,209.19,209.19,0,0,0-12.7,25c-2.64,6.31-5.06,12.71-7.6,19.07a7.38,7.38,0,0,0-.23,4.6,223.28,223.28,0,0,0,12.53,38.57,282,282,0,0,0,19.39,37,279.11,279.11,0,0,0,18,26.24c6.06,7.73,12.36,15.28,18.67,22.82,6.52,7.78,13.56,15.09,20.82,22.18,3.77,3.67,7.72,7.17,11.63,10.69a9.82,9.82,0,0,0,2.4,1.48c7.33,3.45,14.57,7.15,22.06,10.22,9.89,4,19.9,7.87,30,11.31a319.21,319.21,0,0,0,43.38,11.28,284.81,284.81,0,0,0,29.64,4.32c6.81.57,13.63.93,20.45,1.39,2,.13,3.92.39,5.87.42a261.55,261.55,0,0,0,26.84-1.3,178.9,178.9,0,0,0,29.71-5.22,147.94,147.94,0,0,0,39.37-16.84,70.2,70.2,0,0,0,19.14-17.66,202.52,202.52,0,0,0,17.29-26.72,223.34,223.34,0,0,0,20.31-54.22,241.41,241.41,0,0,0,5.33-29.95q1.17-10.54,2.23-21.1c.25-2.5.36-5,.59-7.52a7.18,7.18,0,0,1,1.78-4.28,5,5,0,0,1,5.37-1.49,4.3,4.3,0,0,1,3.28,3.9,27.93,27.93,0,0,1,.33,3.52c-.12,6.21-.06,12.43-.53,18.62a249.56,249.56,0,0,1-12.73,62A178.54,178.54,0,0,1,457,560.75a133.27,133.27,0,0,1-14.4,15.91c-5.18,4.81-10.59,9.38-15.84,14.12-2,1.79-3.81,3.76-5.73,5.62a244.23,244.23,0,0,1-24.57,21.32,136.43,136.43,0,0,1-55.93,24.6,102,102,0,0,1-22.74,2.19c-4.55-.13-9.11-.4-13.67-.35-2.8,0-5.59.53-8.39.82ZM265,213.74l0-.41c-.77,0-1.55-.05-2.31,0-4.94.34-9.9.51-14.81,1.08q-11.84,1.38-23.6,3.23c-5,.78-10.17,1.33-14.89,3.48-4.16,1.89-8.35,3.7-12.44,5.73-6.63,3.28-13.29,6.51-19.74,10.12q-12.66,7.09-25,14.77a289,289,0,0,0-28.05,20c-5.63,4.54-11.33,9-16.64,13.92A210.31,210.31,0,0,0,78,319c-4,5.6-7.24,11.41-8.15,18.33-.18,1.32-.57,2.62-.73,3.94-.86,7-2.05,14-2.42,21.07a154.9,154.9,0,0,0,1.82,33.38c.12.71.35,1.39.67,2.59.55-1,.84-1.5,1-2A239.21,239.21,0,0,1,84.53,366c4.2-7.38,8.48-14.73,13-21.89a280,280,0,0,1,21.53-29c4.49-5.36,9-10.72,13.86-15.76,9.86-10.27,19.9-20.38,31.08-29.25,7.45-5.92,14.94-11.81,22.69-17.32a273.53,273.53,0,0,1,43.59-25.42c7.06-3.27,14.29-6.2,21.51-9.1C256.13,216.61,260.58,215.26,265,213.74ZM233.82,625.61l.22-.45c-.52-.31-1-.65-1.56-.92q-15.48-7.59-30.13-16.68a319.17,319.17,0,0,1-30.16-21.07,60.4,60.4,0,0,0-6.85-5c-6.17-3.62-12.53-6.91-18.69-10.55a261.66,261.66,0,0,1-44.78-33.69,222.15,222.15,0,0,1-19.69-20.66,192,192,0,0,1-16.33-22.22,6.62,6.62,0,0,0-.8-.86,2.8,2.8,0,0,0-.11.66c.21.84.43,1.68.65,2.51,2.43,9,6.4,17.4,10.75,25.62a148.92,148.92,0,0,0,25.71,34.49c4.94,5,10.3,9.68,15.63,14.33a199.69,199.69,0,0,0,22.61,16.62A255.56,255.56,0,0,0,174.13,606a300.42,300.42,0,0,0,28.78,11.26,264.21,264.21,0,0,0,28.87,8C232.45,625.38,233.14,625.49,233.82,625.61ZM377.19,613l-.23-.55c-.59.14-1.19.27-1.78.42-3.82.94-7.6,2.1-11.47,2.78-6.5,1.15-13,2.19-19.59,2.9s-13,1.15-19.5,1.33a233.25,233.25,0,0,1-34.15-1.35c-7.18-.86-14.37-1.64-21.52-2.73a337.17,337.17,0,0,1-35.27-7.65c-.34-.09-.7-.12-1.05-.19a2.76,2.76,0,0,0,1.23,1.14,199.72,199.72,0,0,0,35.29,14.57,211.84,211.84,0,0,0,33.2,7.07,22.15,22.15,0,0,0,4.92.37c5-.49,10-1,15-1.83,16.62-2.58,32.85-6.61,48.34-13.31C372.8,615,375,614,377.19,613ZM65,430.74a7.47,7.47,0,0,0-.31,1c-.93,6.3-2,12.58-2.71,18.9a68.51,68.51,0,0,0-.08,8.72,4.81,4.81,0,0,0,.44,1.81q1,2.4,2.12,4.74a163.59,163.59,0,0,0,16,26.68A196.1,196.1,0,0,0,97.1,512.76a248.54,248.54,0,0,0,23.44,21.51,6.89,6.89,0,0,0,1.12.51,314.74,314.74,0,0,1-34-49.3A258.6,258.6,0,0,1,65,430.74Zm-3.21-79.9-.39-.18c-.37.93-.8,1.84-1.11,2.79-1.27,3.89-2.61,7.76-3.72,11.7a143.48,143.48,0,0,0-5.12,28c-.22,2.9-.44,5.8-.6,8.7-.13,2.35-.32,4.72-.22,7.06.15,3.45.58,6.89.8,10.34a110,110,0,0,0,4.67,24.51c.12.41.33.8.65,1.58a7.87,7.87,0,0,0,.4-1.2c1-7.84,2.94-15.46,4.91-23.07a10.84,10.84,0,0,0,.17-4.87,185.87,185.87,0,0,1-3.21-33,173.48,173.48,0,0,1,1.4-22.1C60.87,357.67,61.34,354.25,61.8,350.84ZM78.12,311.7l.42.26c.61-.77,1.23-1.53,1.82-2.32a234.48,234.48,0,0,1,22.93-26.56,309.83,309.83,0,0,1,23-20.88,391.71,391.71,0,0,1,33.53-24.44,19.15,19.15,0,0,0,1.61-1.24,3.19,3.19,0,0,0-2,.33c-5.49,2.73-11.1,5.24-16.43,8.27-6.27,3.57-12.45,7.37-18.39,11.48-4.89,3.39-9.4,7.34-14,11.13A104.06,104.06,0,0,0,97.3,281.38a130.15,130.15,0,0,0-14.83,21.81C80.94,306,79.57,308.86,78.12,311.7Zm307.11-86.5c-34.79-19.49-71.85-27.62-111.59-22.4C312.46,202.19,349.72,209.34,385.23,225.2Z" transform="translate(-40.64 -191.15)"/><path d="M562.07,370.61a17.32,17.32,0,0,1-8.4,4,10.8,10.8,0,0,1-11.7-6,19.88,19.88,0,0,1-2.08-8.89c.06-4.32.21-8.64.37-12.95.06-1.62-.24-2.14-1.82-2.48-.54-.11-1.09-.13-1.64-.19a2.06,2.06,0,0,1-2-1.94,2.26,2.26,0,0,1,1.47-2.65,10.41,10.41,0,0,1,2.29-.51c2.08-.28,2.16-.26,2.49-2.4s.49-4.21.72-6.32c.18-1.64.34-3.28.54-4.92a2.29,2.29,0,0,1,2.38-2.39c3-.37,4.45,1.05,4.1,4.09s-.75,6.08-1.11,9.12a16.89,16.89,0,0,0,0,1.76c1.68,0,3.31.09,4.92,0,1.95-.14,3.9-.47,5.85-.72s2.76.08,3.08,1.31c.48,1.89-.24,3.48-2,4a24,24,0,0,1-4,.66c-2.19.23-4.39.39-6.58.53-1,.07-1.87.27-2,1.51a65.94,65.94,0,0,0,0,17.86,6.8,6.8,0,0,0,.6,1.78c1.73,3.87,4.87,5,8.69,3.1a19.27,19.27,0,0,0,3.34-2.2,1.55,1.55,0,0,1,2.44.15Z" transform="translate(-40.64 -191.15)"/><path d="M361.42,446.66c.87-.5,1.72-1.05,2.62-1.47a77.53,77.53,0,0,1,8.58-3.88c4.13-1.35,8.43-1.5,12.37.71a26.86,26.86,0,0,1,4.63,3.94c1.23,1.15,1.32,1.21,2.83.41q3.23-1.71,6.47-3.4a21.18,21.18,0,0,1,12.33-2.41c5,.56,8.69,3.09,10.56,7.89a20.51,20.51,0,0,1,1.41,7.61c0,9,0,17.94,0,26.9,0,.71,0,1.42,0,2.13.13,2.48,1.07,3.53,3.52,4,.46.08.94.08,1.41.13,1.85.18,2.3.76,2.13,2.57a1.53,1.53,0,0,1-1.66,1.59c-1.34,0-2.67,0-4,0-4.88,0-9.76,0-14.64,0-2,0-2.56-.75-2.27-2.6a1.6,1.6,0,0,1,1.51-1.53l.47-.05c4.44-.54,5-1.17,5-5.65,0-6.77.05-13.53,0-20.3a67.5,67.5,0,0,0-.51-7.51c-.78-6.4-5-8.83-11.17-8.45-3.5.21-6.71,1.63-9.87,3.07a1.85,1.85,0,0,0-1.32,2.17,39,39,0,0,1,.2,4.71q0,13.33,0,26.67c0,4.15.66,4.86,4.84,5.29,1.73.17,2.16.59,2.2,2.11s-.35,2-1.9,2c-6.29.05-12.59,0-18.88,0a1.57,1.57,0,0,1-1.8-1.69c-.07-1.51.33-2.2,1.6-2.43.85-.15,1.73-.14,2.56-.35,1.81-.45,2.32-1.13,2.43-3,0-.63,0-1.26,0-1.89,0-8.89,0-17.78,0-26.67,0-2.65-.51-5.17-2.4-7.21-2.34-2.52-5.39-3.19-8.62-2.91-3.41.29-6.52,1.7-9.62,3.07-1.43.63-1.58,1.77-1.58,3.11,0,7.78,0,15.57,0,23.36,0,2.76,0,5.51,0,8.26s1.17,3.83,3.84,4.1c.39,0,.79,0,1.18.06,1.58.19,2,.72,2,2.31s-.4,1.84-2.1,1.85q-9.19,0-18.41,0c-1.68,0-2-.4-2.08-1.88-.08-1.67.29-2.11,1.92-2.3l.47,0c3.63-.33,4.23-1,4.23-4.74,0-9.28,0-18.57,0-27.85,0-1.73.13-3.45.28-5.17.24-2.85-.5-3.73-3.35-3.8a8.67,8.67,0,0,1-2.11-.1c-.51-.14-1.21-.61-1.3-1.05a3.31,3.31,0,0,1,.44-1.92c.13-.28.64-.43,1-.55,3.53-1.08,7.07-2.16,10.61-3.21a5.08,5.08,0,0,1,1.4-.19c1.4,0,1.81.34,1.89,1.79s0,2.65,0,4Z" transform="translate(-40.64 -191.15)"/><path d="M212.73,446.54l7.38-3.67a23.28,23.28,0,0,1,12.12-2.38,12.55,12.55,0,0,1,11.14,8.16A21,21,0,0,1,244.7,456c0,9.05,0,18.1,0,27.15,0,.7,0,1.41,0,2.12.17,2.24,1.05,3.24,3.25,3.71.62.13,1.26.12,1.88.23a2,2,0,0,1,1.87,2.47c-.1,1.26-.47,1.63-2.08,1.64q-9.19.06-18.41,0c-1.67,0-2-.43-2.07-1.88s.39-2.07,2-2.28c.32,0,.63,0,1-.06,3-.38,4-1.47,4-4.45,0-8.34.05-16.68,0-25a26.16,26.16,0,0,0-.62-5.14c-.92-4.42-4.18-7-8.89-7.4a19.64,19.64,0,0,0-7.65,1.14c-1.57.52-3.08,1.21-4.62,1.79a2.42,2.42,0,0,0-1.77,2.49c0,.56,0,1.11,0,1.66v29.26c0,.63,0,1.27,0,1.89a3.44,3.44,0,0,0,3.09,3.6c.68.16,1.4.16,2.1.3,1.41.27,1.83.85,1.83,2.28,0,1.12-.45,1.8-1.65,1.83l-.7,0c-6,0-12,0-17.94,0-2,0-2.49-.63-2.31-2.35a1.78,1.78,0,0,1,1.61-1.74c.86-.15,1.73-.18,2.56-.39a3.26,3.26,0,0,0,2.82-3.31,18.7,18.7,0,0,0,.05-2.12q0-28.8,0-57.59c0-4.58-.09-4.66-4.57-4.72-.47,0-.94,0-1.41,0-.79,0-1.38-.36-1.48-1.22a1.76,1.76,0,0,1,.82-2,2,2,0,0,1,.42-.2c4.07-1.19,7.87-3.24,12.16-3.71,2.15-.23,2.51,0,2.53,2.19,0,5.43,0,10.86,0,16.29,0,3.7,0,7.39,0,11.09C212.58,444.37,212.66,445.21,212.73,446.54Z" transform="translate(-40.64 -191.15)"/><path d="M191.28,482.23c0,2,0,4.1,0,6.14a2.38,2.38,0,0,1-1.74,2.5c-5.2,1.86-10.44,3.51-16,3.48-4.17,0-8.33.27-12.47-.54-15.14-3-26.17-15.24-27.86-30.87-.76-7-.44-13.85,2-20.45,4-10.68,11.38-17.94,22.33-21.38,9.33-2.93,18.64-2.18,27.91.37,1.36.38,2.72.8,4.07,1.22a2.32,2.32,0,0,1,1.77,2.47c0,4.17,0,8.34,0,12.51,0,1.45-.4,1.73-1.87,1.86-.47,0-.94,0-1.41,0-2.39,0-2.46-.06-3-2.37s-1.18-4.74-1.59-7.14a3.78,3.78,0,0,0-2.7-3.2c-8.46-3.1-16.69-2.83-24.54,1.79a20.72,20.72,0,0,0-6.36,5.88,35.94,35.94,0,0,0-6.26,17.07,40.67,40.67,0,0,0,3.12,21.67c3.42,7.8,9.22,13,17.59,15.11,5.5,1.37,10.91.65,16.26-1a3.88,3.88,0,0,0,2.89-3.33c.5-2.7,1.19-5.37,1.83-8,.22-.9.3-2.09,1.44-2.21a12,12,0,0,1,3.92.28c.37.09.68,1.18.71,1.82.09,2.12,0,4.25,0,6.37Z" transform="translate(-40.64 -191.15)"/><path d="M134.63,340.13V337.9c0-4,0-8,.05-12,0-2.18.29-2.39,2.49-2.45.55,0,1.1,0,1.65,0H191c2.38,0,2.62.24,2.64,2.53q.06,6,0,12c0,2.11-.33,2.37-2.53,2.42-2.68.06-2.86-.07-3.42-2.74-.49-2.31-.91-4.63-1.41-6.94-.43-2-.58-2.13-2.45-2.15q-6.26-.06-12.51,0c-1.87,0-2.13.35-2.22,2.25,0,.48,0,.95,0,1.42q0,27.15,0,54.3c0,4,.6,4.61,4.57,4.88a13.24,13.24,0,0,1,2.1.25c1.57.37,1.91.88,1.84,2.5-.06,1.43-.38,1.79-1.82,1.92-.62.06-1.26,0-1.89,0H154.3c-.55,0-1.11,0-1.66,0-1.52-.12-1.82-.41-1.92-1.81-.11-1.57.19-2.11,1.53-2.45a16.86,16.86,0,0,1,2.56-.41c4-.36,4.85-1.3,4.85-5.36q0-16.41,0-32.82v-21c0-.55,0-1.1,0-1.65-.12-1.62-.39-1.88-2-2h-.47c-4.1,0-8.19,0-12.28,0-2.19,0-2.37.23-2.79,2.33-.5,2.46-1,4.93-1.56,7.39-.42,1.83-.7,2-2.55,2.1-.7,0-1.41,0-2.12,0A11.11,11.11,0,0,1,134.63,340.13Z" transform="translate(-40.64 -191.15)"/><path d="M286.45,487.55c-2.14,1.28-4,2.32-5.77,3.45a21.4,21.4,0,0,1-14.2,3.27,13,13,0,0,1-11.28-10c-1.8-8,2-13.91,8.21-17a52.22,52.22,0,0,1,7.22-2.88c4.5-1.41,9.06-2.64,13.6-3.92,1.88-.53,2-.61,2-2.57a42.2,42.2,0,0,0-.33-5.4,8.66,8.66,0,0,0-9-7.33,59.27,59.27,0,0,0-6.55.62c-2.43.46-3,1.31-3,3.75,0,1.42,0,2.83,0,4.25a1.56,1.56,0,0,1-1.74,1.75c-1.73,0-3.47.06-5.19,0-2-.1-2.87-1-2.86-3,0-2.79.87-5.31,3.24-7a25.1,25.1,0,0,1,13.08-4.95A46.75,46.75,0,0,1,284,441c5.83.89,9.37,4.53,10.59,10.28a29.39,29.39,0,0,1,.61,5.84c.07,8.58,0,17.15,0,25.73,0,.71,0,1.41,0,2.12.14,2.56,1.14,3.67,3.7,4.07.46.07.94.06,1.41.11,1.66.18,2,.61,2,2.25s-.4,1.9-2,1.93q-5.31.08-10.62,0c-1.7,0-2-.33-2.38-2C287,490.21,286.76,489.06,286.45,487.55ZM286,465a10.88,10.88,0,0,0-1.57.17,66.82,66.82,0,0,0-6.77,2,84.11,84.11,0,0,0-9.41,4.3c-4.31,2.38-5.23,7.57-3.49,12,1.55,4,5.53,5.78,10.32,5a21.87,21.87,0,0,0,9.23-3.93,4.17,4.17,0,0,0,2-3.74c-.06-4.56,0-9.11,0-13.67A17.8,17.8,0,0,0,286,465Z" transform="translate(-40.64 -191.15)"/><path d="M306.83,390.54c-2.44,1.45-4.41,2.75-6.48,3.82-5.25,2.71-10.66,4.22-16.56,2.13a12.46,12.46,0,0,1-8.37-11.43,22.84,22.84,0,0,1,.64-6.51,13.68,13.68,0,0,1,7-8c4.93-2.7,10.39-4,15.73-5.67,2-.61,4.12-1,6.19-1.48,1.65-.41,1.79-.56,1.68-2.24a55,55,0,0,0-.6-6.55,7.56,7.56,0,0,0-5.43-6c-3.52-1.2-7-.78-10.44.25-2,.6-2.43,1.33-2.48,3.47,0,1.49,0,3-.05,4.48s-.4,1.86-1.86,1.83c-2-.05-4.07-.28-6.1-.49-.91-.1-1.29-.8-1.5-1.62a7.62,7.62,0,0,1,1.9-7c1.82-2.22,4.38-3.33,6.94-4.32a30.77,30.77,0,0,1,19-1,10.9,10.9,0,0,1,8.13,7.5,25.79,25.79,0,0,1,1.31,7.37c.16,8.65.06,17.3.06,25.95,0,.79,0,1.58,0,2.36.1,2.74,1,3.83,3.63,4.42.62.14,1.24.23,1.85.4,1.35.37,1.67.86,1.6,2.16s-.78,1.63-1.87,1.64c-3.62,0-7.23,0-10.85,0a1.94,1.94,0,0,1-2.1-1.79C307.52,393.19,307.21,392.08,306.83,390.54Zm-.24-22.63a9.45,9.45,0,0,0-1.93.12c-5.24,1.44-10.46,3-15.2,5.71a9.42,9.42,0,0,0-4.35,4.51c-2.49,6.46.54,13.14,8.43,13.16,4.22,0,7.72-1.85,11.14-4a3.88,3.88,0,0,0,1.94-3.73c-.08-4.09,0-8.18,0-12.27Z" transform="translate(-40.64 -191.15)"/><path d="M239,370.13a28,28,0,0,1-3.61,15.55,22.48,22.48,0,0,1-12.82,10.53,24.77,24.77,0,0,1-19.05-1.12c-5.87-2.78-9.6-7.53-11.74-13.53a31.75,31.75,0,0,1,1.12-24.8,21.76,21.76,0,0,1,18-13.16,26.08,26.08,0,0,1,14.7,2.1c5.76,2.66,9.41,7.2,11.58,13A27.26,27.26,0,0,1,239,370.13Zm-9.39.57a32.07,32.07,0,0,0-3.38-15.32c-4-8.14-15-9.8-21-3.23a19.15,19.15,0,0,0-4.29,8,34.1,34.1,0,0,0-1.27,13.5,38.3,38.3,0,0,0,2.1,9.14c2.18,5.52,6.17,10.35,14.46,9.56a11,11,0,0,0,5.48-1.91,17.24,17.24,0,0,0,6-8.29A29.94,29.94,0,0,0,229.6,370.7Z" transform="translate(-40.64 -191.15)"/><path d="M407.05,362.31c.24-2.9.48-5.79.73-8.69l1.29-15.24c.14-1.65.37-3.29.42-4.93.05-2.11-.1-2.27-2.17-2.49a2.86,2.86,0,0,1-2.6-1.71,2.49,2.49,0,0,1,1-3.45,7.14,7.14,0,0,1,1.71-.78,61.88,61.88,0,0,1,18.06-3,25.87,25.87,0,0,1,10.54,2.24,16.1,16.1,0,0,1,9.72,13c1.53,10.39-1.7,19.38-8.86,27a36.52,36.52,0,0,1-8.12,6.78,25.81,25.81,0,0,1-10.39,3.64c-5.93.58-10.43-2.29-11.16-9.05a30.23,30.23,0,0,1,0-3.3Zm7-2.47h.28a37,37,0,0,0,0,4.94c.41,3,2.46,4.28,5.41,3.59a12.84,12.84,0,0,0,2-.61,27.08,27.08,0,0,0,15-14.54c2.2-4.84,3.17-9.83,2-15.13a12.09,12.09,0,0,0-10.76-10,28,28,0,0,0-7.49,0c-4,.53-3.92.61-4.41,4.6,0,.24,0,.48,0,.71-.35,4.77-.69,9.54-1.07,14.31C414.75,351.72,414.39,355.78,414.05,359.84Z" transform="translate(-40.64 -191.15)"/><path d="M342,353q0,16.17,0,32.33c0,1.1.13,2.2.22,3.29.17,2,1.37,2.9,3.21,3.19a22.65,22.65,0,0,1,2.33.39c1.47.36,1.87.94,1.74,2.31s-.48,1.61-2.1,1.63c-4.4,0-8.81,0-13.21,0-2.05,0-4.1,0-6.14,0-1.61,0-2-.39-2.08-1.64s.25-1.84,1.82-2.17c1-.21,2-.39,3-.57a2.87,2.87,0,0,0,2.53-2.71,22.24,22.24,0,0,0,.14-2.59q0-28.91,0-57.82c0-3.59-.21-3.82-3.8-4.17-.63-.07-1.26-.06-1.89-.09-.95,0-1.71-.29-1.8-1.43a1.86,1.86,0,0,1,1.35-2.19c.82-.27,1.63-.57,2.45-.85,2.61-.88,5.21-1.76,7.83-2.63a7,7,0,0,1,1.37-.34c2.38-.36,3,.13,3,2.56q0,16.76,0,33.51Z" transform="translate(-40.64 -191.15)"/><path d="M321,451.53c1.64-2,2.93-3.71,4.44-5.26a32.61,32.61,0,0,1,4.91-4.35c3.14-2.14,6.57-1.7,10-.54a2.35,2.35,0,0,1,1.61,2.79c-.17,1.8-.29,3.6-.5,5.39s-1.15,2.08-2.65,1.15c-.87-.54-1.67-1.19-2.54-1.71a6.06,6.06,0,0,0-6.08-.26,18.42,18.42,0,0,0-8.41,8.3,5.82,5.82,0,0,0-.52,2.73q-.06,12.39,0,24.77c0,3.09.89,4,4,4.49,1.09.15,2.2.07,3.3.18,1.34.13,1.66.57,1.67,2s-.32,1.93-1.62,2.09a12.94,12.94,0,0,1-1.65,0H308.94l-1.65,0a1.5,1.5,0,0,1-1.65-1.59c-.08-1.34.29-2.12,1.38-2.41.83-.21,1.71-.2,2.55-.38,2-.46,2.63-1.16,2.67-3.26.06-2.36,0-4.72,0-7.08V451.74c0-.39,0-.79,0-1.18-.06-2.62-.37-2.92-3.06-3-.78,0-1.57,0-2.35,0s-1.42-.25-1.57-1.12a1.78,1.78,0,0,1,.89-2.2,2,2,0,0,1,.22-.09c3.91-1.18,7.8-2.45,11.75-3.48,1.77-.46,2.47.25,2.53,2.11.07,2.35,0,4.71.05,7.07A14.61,14.61,0,0,0,321,451.53Z" transform="translate(-40.64 -191.15)"/><path d="M247.52,370.8c0-5.27,0-10.54,0-15.81,0-2.61-.21-2.79-2.84-2.83-.55,0-1.1,0-1.65,0-1,0-1.9-.1-2.09-1.38a2.4,2.4,0,0,1,1.17-2.8,38.12,38.12,0,0,0,4.26-2.47,13,13,0,0,0,4.68-6.92,3.2,3.2,0,0,1,3.61-2.6c1.35.06,1.71.21,1.73,1.61a65.92,65.92,0,0,1-.18,6.59c-.2,2.43,0,2.78,2.43,2.8,3.46,0,6.92,0,10.38.05.78,0,2.11.32,2.23.74a8.33,8.33,0,0,1,0,3.65c-.06.35-1.16.67-1.8.69-2.44.08-4.87,0-7.31.05h-2.6c-3.55,0-3.56,0-3.19,3.57a26.58,26.58,0,0,1,.1,2.83c0,8.09,0,16.19.06,24.29a14.37,14.37,0,0,0,1,4.79,5.51,5.51,0,0,0,5.49,3.72,61,61,0,0,0,6.32-.57c.85-.1,1.75-.51,2.18.66s0,3.21-1,3.52c-4.9,1.48-9.84,2.86-15.05,1.68-5.4-1.23-7.4-3.29-7.85-9.58-.21-3-.06-6-.06-9,0-2.44,0-4.87,0-7.31Z" transform="translate(-40.64 -191.15)"/><path d="M502.62,355.19c.28-.69.54-1.38.84-2.07,2-4.63,4.08-9.19,7.84-12.76a11.83,11.83,0,0,1,6.94-3.19,8.28,8.28,0,0,1,9.17,6.41c1,4.1.64,8.26.44,12.43-.15,3-.08,6.11.06,9.15A5.21,5.21,0,0,0,530,369a3,3,0,0,1,1.07,3.73c-.53,1.19-1.64,1.78-3.34,1.67a5.89,5.89,0,0,1-4.88-2.87,11.21,11.21,0,0,1-1.87-6c0-3.3.26-6.59.34-9.89.07-2.51,0-5,0-7.54a.85.85,0,0,0,0-.23c-.29-1.85-.73-3.64-2.77-4.3s-3.36.48-4.59,1.73a28.34,28.34,0,0,0-5.61,9.21c-2.06,4.93-3.81,10-5.69,15-.22.59-.4,1.2-.6,1.79-1,3-2.23,3.66-5.33,3a1.84,1.84,0,0,1-1.73-1.89,20.29,20.29,0,0,1,.05-2.59,112,112,0,0,0,.83-17.17c-.17-3.75-.67-7.5-1.15-11.23-.31-2.4-.07-3.11,1.81-3.62,2.36-.65,4,0,4.54,2a27.48,27.48,0,0,1,.92,5.56c.15,2.5,0,5,0,7.54,0,.75.06,1.49.1,2.23Z" transform="translate(-40.64 -191.15)"/><path d="M459.14,359.26c-.2,4.7,2.3,8.2,6.7,9.34,5.69,1.47,10.73,0,15.2-3.62.31-.25.56-.56.86-.82,1.38-1.21,2.23-1.28,3.26-.27a2.54,2.54,0,0,1,.23,3.77,18.32,18.32,0,0,1-8.88,6,22.8,22.8,0,0,1-14.82,0,13.25,13.25,0,0,1-8.9-9.87c-2.41-9.8,2.44-21,11.73-25.05,5-2.2,10.1-2.41,15,.4a9.59,9.59,0,0,1,.68,16.07,23.32,23.32,0,0,1-12.61,4.09C464.82,359.38,462.06,359.26,459.14,359.26Zm.54-5.25c4.47.11,8.8.57,13-.94a9.74,9.74,0,0,0,3.7-2.38,4.73,4.73,0,0,0-1.66-7.65,9,9,0,0,0-3.65-.7C465.34,342.52,460.1,347.82,459.68,354Z" transform="translate(-40.64 -191.15)"/><path class="cls-1" d="M265,213.74c-4.38,1.52-8.83,2.87-13.13,4.59-7.22,2.9-14.45,5.83-21.51,9.1a273.53,273.53,0,0,0-43.59,25.42c-7.75,5.51-15.24,11.4-22.69,17.32-11.18,8.87-21.22,19-31.08,29.25-4.84,5-9.37,10.4-13.86,15.76a280,280,0,0,0-21.53,29c-4.56,7.16-8.84,14.51-13,21.89a239.21,239.21,0,0,0-14.3,30.29c-.2.49-.49.95-1,2-.32-1.2-.55-1.88-.67-2.59a154.9,154.9,0,0,1-1.82-33.38c.37-7,1.56-14,2.42-21.07.16-1.32.55-2.62.73-3.94C70.76,330.41,74,324.6,78,319a210.31,210.31,0,0,1,29.52-33.33c5.31-4.9,11-9.38,16.64-13.92a289,289,0,0,1,28.05-20q12.3-7.68,25-14.77c6.45-3.61,13.11-6.84,19.74-10.12,4.09-2,8.28-3.84,12.44-5.73,4.72-2.15,9.85-2.7,14.89-3.48q11.76-1.84,23.6-3.23c4.91-.57,9.87-.74,14.81-1.08.76-.05,1.54,0,2.31,0Z" transform="translate(-40.64 -191.15)"/><path class="cls-1" d="M233.82,625.61c-.68-.12-1.37-.23-2-.38a264.21,264.21,0,0,1-28.87-8A300.42,300.42,0,0,1,174.13,606a255.56,255.56,0,0,1-33.84-18.21,199.69,199.69,0,0,1-22.61-16.62c-5.33-4.65-10.69-9.29-15.63-14.33a148.92,148.92,0,0,1-25.71-34.49C72,514.1,68,505.72,65.59,496.7c-.22-.83-.44-1.67-.65-2.51a2.8,2.8,0,0,1,.11-.66,6.62,6.62,0,0,1,.8.86,192,192,0,0,0,16.33,22.22,222.15,222.15,0,0,0,19.69,20.66A261.66,261.66,0,0,0,146.65,571c6.16,3.64,12.52,6.93,18.69,10.55a60.4,60.4,0,0,1,6.85,5,319.17,319.17,0,0,0,30.16,21.07q14.67,9.08,30.13,16.68c.54.27,1,.61,1.56.92Z" transform="translate(-40.64 -191.15)"/><path class="cls-1" d="M377.19,613c-2.2,1-4.39,2-6.6,3-15.49,6.7-31.72,10.73-48.34,13.31-5,.78-10,1.34-15,1.83a22.15,22.15,0,0,1-4.92-.37,211.84,211.84,0,0,1-33.2-7.07,199.72,199.72,0,0,1-35.29-14.57,2.76,2.76,0,0,1-1.23-1.14c.35.07.71.1,1.05.19A337.17,337.17,0,0,0,269,615.82c7.15,1.09,14.34,1.87,21.52,2.73a233.25,233.25,0,0,0,34.15,1.35c6.51-.18,13-.63,19.5-1.33s13.09-1.75,19.59-2.9c3.87-.68,7.65-1.84,11.47-2.78.59-.15,1.19-.28,1.78-.42Z" transform="translate(-40.64 -191.15)"/><path class="cls-1" d="M65,430.74a258.6,258.6,0,0,0,22.67,54.74,314.74,314.74,0,0,0,34,49.3,6.89,6.89,0,0,1-1.12-.51A248.54,248.54,0,0,1,97.1,512.76a196.1,196.1,0,0,1-16.67-20.15,163.59,163.59,0,0,1-16-26.68q-1.11-2.34-2.12-4.74a4.81,4.81,0,0,1-.44-1.81,68.51,68.51,0,0,1,.08-8.72c.75-6.32,1.78-12.6,2.71-18.9A7.47,7.47,0,0,1,65,430.74Z" transform="translate(-40.64 -191.15)"/><path class="cls-1" d="M61.8,350.84c-.46,3.41-.93,6.83-1.37,10.25a173.48,173.48,0,0,0-1.4,22.1,185.87,185.87,0,0,0,3.21,33,10.84,10.84,0,0,1-.17,4.87c-2,7.61-4,15.23-4.91,23.07a7.87,7.87,0,0,1-.4,1.2c-.32-.78-.53-1.17-.65-1.58a110,110,0,0,1-4.67-24.51c-.22-3.45-.65-6.89-.8-10.34-.1-2.34.09-4.71.22-7.06.16-2.9.38-5.8.6-8.7a143.48,143.48,0,0,1,5.12-28c1.11-3.94,2.45-7.81,3.72-11.7.31-.95.74-1.86,1.11-2.79Z" transform="translate(-40.64 -191.15)"/><path class="cls-1" d="M78.12,311.7c1.45-2.84,2.82-5.72,4.35-8.51A130.15,130.15,0,0,1,97.3,281.38a104.06,104.06,0,0,1,13.31-13.65c4.61-3.79,9.12-7.74,14-11.13,5.94-4.11,12.12-7.91,18.39-11.48,5.33-3,10.94-5.54,16.43-8.27a3.19,3.19,0,0,1,2-.33,19.15,19.15,0,0,1-1.61,1.24,391.71,391.71,0,0,0-33.53,24.44,309.83,309.83,0,0,0-23,20.88,234.48,234.48,0,0,0-22.93,26.56c-.59.79-1.21,1.55-1.82,2.32Z" transform="translate(-40.64 -191.15)"/><path class="cls-1" d="M385.23,225.2c-35.51-15.86-72.77-23-111.59-22.4C313.38,197.58,350.44,205.71,385.23,225.2Z" transform="translate(-40.64 -191.15)"/><path class="cls-1" d="M286,465a17.8,17.8,0,0,1,.24,2.13c0,4.56,0,9.11,0,13.67a4.17,4.17,0,0,1-2,3.74,21.87,21.87,0,0,1-9.23,3.93c-4.79.8-8.77-1-10.32-5-1.74-4.44-.82-9.63,3.49-12a84.11,84.11,0,0,1,9.41-4.3,66.82,66.82,0,0,1,6.77-2A10.88,10.88,0,0,1,286,465Z" transform="translate(-40.64 -191.15)"/><path class="cls-1" d="M306.59,367.91v3.47c0,4.09,0,8.18,0,12.27a3.88,3.88,0,0,1-1.94,3.73c-3.42,2.18-6.92,4-11.14,4-7.89,0-10.92-6.7-8.43-13.16a9.42,9.42,0,0,1,4.35-4.51c4.74-2.76,10-4.27,15.2-5.71A9.45,9.45,0,0,1,306.59,367.91Z" transform="translate(-40.64 -191.15)"/><path class="cls-1" d="M229.6,370.7a29.94,29.94,0,0,1-1.93,11.47,17.24,17.24,0,0,1-6,8.29,11,11,0,0,1-5.48,1.91c-8.29.79-12.28-4-14.46-9.56a38.3,38.3,0,0,1-2.1-9.14,34.1,34.1,0,0,1,1.27-13.5,19.15,19.15,0,0,1,4.29-8c6-6.57,17-4.91,21,3.23A32.07,32.07,0,0,1,229.6,370.7Z" transform="translate(-40.64 -191.15)"/><path class="cls-1" d="M414.05,359.84c.34-4.06.7-8.12,1-12.18.38-4.77.72-9.54,1.07-14.31,0-.23,0-.47,0-.71.49-4,.37-4.07,4.41-4.6a28,28,0,0,1,7.49,0,12.09,12.09,0,0,1,10.76,10c1.15,5.3.18,10.29-2,15.13a27.08,27.08,0,0,1-15,14.54,12.84,12.84,0,0,1-2,.61c-2.95.69-5-.6-5.41-3.59a37,37,0,0,1,0-4.94Z" transform="translate(-40.64 -191.15)"/><path class="cls-1" d="M459.68,354c.42-6.19,5.66-11.49,11.35-11.67a9,9,0,0,1,3.65.7,4.73,4.73,0,0,1,1.66,7.65,9.74,9.74,0,0,1-3.7,2.38C468.48,354.58,464.15,354.12,459.68,354Z" transform="translate(-40.64 -191.15)"/></svg>